<?xml version="1.0" encoding="UTF-8"?>
<svg id="Layer_1" data-name="Layer 1" xmlns="http://www.w3.org/2000/svg" viewBox="0 0 486.2 486.2">
  <defs>
    <style>
      .cls-1 {
        fill: #e5e521;
      }

      .cls-1, .cls-2 {
        stroke: #231f20;
        stroke-miterlimit: 10;
        stroke-width: 4px;
      }

      .cls-2 {
        fill: #e61e25;
      }
    </style>
  </defs>
  <path class="cls-2" d="m243.1,243.1L72.62,72.62c22.21-22.21,48.72-40.1,78.19-52.32l92.29,222.8Z"/>
  <path class="cls-1" d="m243.1,2v241.1L150.81,20.3c28.42-11.79,59.6-18.3,92.29-18.3Z"/>
  <path class="cls-1" d="m413.59,72.62l-170.48,170.48L335.39,20.3c29.47,12.22,55.99,30.11,78.19,52.32Z"/>
  <path class="cls-2" d="m466.31,151.79l-223.21,91.31,170.48-170.48c22.45,22.46,40.5,49.32,52.73,79.17Z"/>
  <path class="cls-1" d="m484.2,243.1h-241.1l223.21-91.31c11.53,28.16,17.89,58.99,17.89,91.31Z"/>
  <path class="cls-1" d="m465.91,335.39c-12.22,29.47-30.11,55.99-52.32,78.19l-170.48-170.48,222.8,92.29Z"/>
  <path class="cls-2" d="m413.59,413.59c-22.21,22.21-48.72,40.1-78.19,52.32l-92.29-222.8,170.48,170.48Z"/>
  <path class="cls-1" d="m335.39,465.91c-28.42,11.79-59.6,18.3-92.29,18.3v-241.1l92.29,222.8Z"/>
  <path class="cls-1" d="m243.1,243.1l-92.29,222.8c-29.47-12.22-55.99-30.11-78.19-52.32l170.48-170.48Z"/>
  <path class="cls-2" d="m243.1,243.1l-170.48,170.48c-22.45-22.45-40.5-49.32-52.73-79.17l223.21-91.31Z"/>
  <path class="cls-1" d="m243.1,243.1L19.89,334.41c-11.53-28.16-17.89-58.99-17.89-91.31h241.1Z"/>
  <path class="cls-1" d="m243.1,243.1L20.3,150.81c12.22-29.47,30.11-55.99,52.32-78.19l170.48,170.48Z"/>
  <path class="cls-2" d="m335.39,20.3l-92.29,222.8V2c32.69,0,63.87,6.51,92.29,18.3Z"/>
  <path class="cls-2" d="m243.1,243.1v241.1c-32.69,0-63.87-6.51-92.29-18.3l92.29-222.8Z"/>
  <path class="cls-2" d="m484.2,243.1c0,32.69-6.51,63.87-18.3,92.29l-222.8-92.29h241.1Z"/>
  <path class="cls-2" d="m243.1,243.1H2c0-32.69,6.51-63.87,18.3-92.29l222.8,92.29Z"/>
</svg>